<svg version="1" xmlns="http://www.w3.org/2000/svg" width="1928" height="1928" viewBox="0 0 1446 1446"><path d="M696.5.7c-104.7 4.2-200.9 28.4-293 73.8C240.6 154.8 114.1 293.1 48.3 463 2.4 581.4-11 714.3 10 842.1c35.3 214.5 167.5 403 358 510.6 144.6 81.7 312.8 110.5 479.5 82.2 180-30.6 344.1-131.6 455-279.9 121.1-162.2 168.5-368.3 130.4-567.9-24.4-128-81.7-244.3-169.8-344.6-14-16-45.5-47.3-61.6-61.4C1095.4 88.3 970 29.6 833 8.6 790.1 2 738.2-1 696.5.7zm53 120.4c6.6.5 13.6 1.1 15.5 1.3 1.9.3 6 .8 9 1.1 10.7 1.3 39.7 7.5 53.8 11.5 172.4 48.9 308.7 211.8 332.6 397.5.9 6.6 2 18.1 2.6 25.5 2.4 32.1.1 92.7-4.6 120.5-7.3 42.9-30.4 114.4-49 151.7-33.6 67.3-105.7 173.1-188.4 276.8-83.9 105.1-115.9 141.1-171.5 192.7-12.1 11.2-23.1 21.7-24.4 23.3l-2.3 3-16.2-15.2c-21.5-20.3-61.5-60.3-75.8-75.9-25.9-28.4-56.8-65.7-110.3-132.9-46-57.9-81.3-106.2-120-164.5-44.6-67.1-65.3-104.2-79.8-143-20.7-55.4-32.9-101.1-36.2-136-6.1-64.3-3.7-117.1 7.6-167.5 25.2-113 91.7-216.4 183.4-285 82.9-62 179.6-92 274-84.9z"/><path d="M540 277.1c-74.8 7.7-140.4 57.6-172.4 131.2-20.5 47-25.2 97.2-14.1 150.9 8 38.9 18.6 60.1 49.9 99.3 20.1 25.2 59.8 67 116.2 122.1 76.4 74.6 178.1 170.7 179.6 169.8.5-.3.8-6.9.8-14.7 0-14-.1-14.6-5-32.7-5.2-19.1-9.9-30.4-20.1-48.2-5.9-10.2-12.2-18.5-26.4-34.3-5.4-6.1-14-16.2-19.1-22.5-5.1-6.3-11.7-14.5-14.7-18.2-5.9-7.1-14.4-20.4-21-32.7-6.4-11.7-6.3-19.8.8-59.1 3.7-20.6 13.8-93.4 28-202 4.7-36 8.8-66.5 9-67.8.5-2.2.8-2.2 16-2.2H663v312h24V416h26v312h24V416h26v312h24V416h13c12.6 0 13 .1 13.4 2.2.3 1.3 4.4 31.1 9.1 66.3 12.3 91.2 23.7 172.7 28.5 204 5.3 34 5.7 46.3 1.9 54.5-5.8 12.5-19.4 32.8-30.9 46-3.1 3.6-6.9 8.3-8.5 10.5-1.6 2.2-7.7 9.4-13.5 15.9-18.7 21.3-20.2 23-24.8 30-4.9 7.6-13.4 25.8-17.5 37.7-1.5 4.2-3.8 14.2-5.2 22.2-2.1 11.9-2.5 17.1-2.3 28.6l.3 14.1 28.5-26.7c105.5-98.7 197.7-189.1 239.5-234.8 25.8-28.2 49.4-60 58.7-79 7.1-14.8 14.3-40 18.5-65.7 1.3-7.9 1.7-16.5 1.8-36.8 0-23.2-.3-28.1-2.3-39.3-13.8-77-58.8-138.7-124.2-170.1-69-33.2-151.2-23-212 26.1-8.6 7-26.7 25.3-32.4 32.9l-3.8 5.2-7.3-8.7c-44.3-53-110-80.7-175.5-74z"/></svg>